<mxfile host="app.diagrams.net" modified="2022-03-08T18:28:55.590Z" agent="5.0 (Windows NT 10.0; Win64; x64) AppleWebKit/537.36 (KHTML, like Gecko) Chrome/98.0.4758.102 Safari/537.36 Edg/98.0.1108.62" etag="q95PrVS7QriBQkHxH98S" version="16.6.6" type="github">
  <diagram id="wUfY3eNWQgc1KRvblZhc" name="Page-1">
    <mxGraphModel dx="416" dy="499" grid="1" gridSize="10" guides="1" tooltips="1" connect="1" arrows="1" fold="1" page="1" pageScale="1" pageWidth="827" pageHeight="1169" math="0" shadow="0">
      <root>
        <mxCell id="0" />
        <mxCell id="1" parent="0" />
        <mxCell id="BJlCK3rJZ4cMXuTXgVq9-1" value="X&lt;sub&gt;1&lt;/sub&gt;" style="ellipse;whiteSpace=wrap;html=1;aspect=fixed;" vertex="1" parent="1">
          <mxGeometry x="220" y="370" width="40" height="40" as="geometry" />
        </mxCell>
        <mxCell id="BJlCK3rJZ4cMXuTXgVq9-2" value="X&lt;sub&gt;2&lt;/sub&gt;" style="ellipse;whiteSpace=wrap;html=1;aspect=fixed;" vertex="1" parent="1">
          <mxGeometry x="290" y="370" width="40" height="40" as="geometry" />
        </mxCell>
        <mxCell id="BJlCK3rJZ4cMXuTXgVq9-3" value="X&lt;sub&gt;n&lt;/sub&gt;" style="ellipse;whiteSpace=wrap;html=1;aspect=fixed;" vertex="1" parent="1">
          <mxGeometry x="400" y="370" width="40" height="40" as="geometry" />
        </mxCell>
        <mxCell id="BJlCK3rJZ4cMXuTXgVq9-4" value="" style="endArrow=classic;html=1;rounded=0;exitX=0.5;exitY=0;exitDx=0;exitDy=0;" edge="1" parent="1" source="BJlCK3rJZ4cMXuTXgVq9-1">
          <mxGeometry width="50" height="50" relative="1" as="geometry">
            <mxPoint x="220" y="350" as="sourcePoint" />
            <mxPoint x="240" y="330" as="targetPoint" />
          </mxGeometry>
        </mxCell>
        <mxCell id="BJlCK3rJZ4cMXuTXgVq9-5" value="" style="endArrow=classic;html=1;rounded=0;exitX=0.5;exitY=0;exitDx=0;exitDy=0;" edge="1" parent="1">
          <mxGeometry width="50" height="50" relative="1" as="geometry">
            <mxPoint x="309.83" y="370" as="sourcePoint" />
            <mxPoint x="309.83" y="330" as="targetPoint" />
          </mxGeometry>
        </mxCell>
        <mxCell id="BJlCK3rJZ4cMXuTXgVq9-6" value="" style="endArrow=classic;html=1;rounded=0;exitX=0.5;exitY=0;exitDx=0;exitDy=0;" edge="1" parent="1">
          <mxGeometry width="50" height="50" relative="1" as="geometry">
            <mxPoint x="419.83" y="370" as="sourcePoint" />
            <mxPoint x="419.83" y="330" as="targetPoint" />
          </mxGeometry>
        </mxCell>
        <mxCell id="BJlCK3rJZ4cMXuTXgVq9-7" value="e&lt;sub&gt;1&lt;/sub&gt;" style="whiteSpace=wrap;html=1;aspect=fixed;" vertex="1" parent="1">
          <mxGeometry x="220" y="290" width="40" height="40" as="geometry" />
        </mxCell>
        <mxCell id="BJlCK3rJZ4cMXuTXgVq9-8" value="e&lt;sub&gt;2&lt;/sub&gt;" style="whiteSpace=wrap;html=1;aspect=fixed;" vertex="1" parent="1">
          <mxGeometry x="290" y="290" width="40" height="40" as="geometry" />
        </mxCell>
        <mxCell id="BJlCK3rJZ4cMXuTXgVq9-9" value="e&lt;sub&gt;n&lt;/sub&gt;" style="whiteSpace=wrap;html=1;aspect=fixed;" vertex="1" parent="1">
          <mxGeometry x="400" y="290" width="40" height="40" as="geometry" />
        </mxCell>
        <mxCell id="BJlCK3rJZ4cMXuTXgVq9-10" value="&lt;font style=&quot;font-size: 16px&quot;&gt;·······&lt;/font&gt;" style="text;html=1;strokeColor=none;fillColor=none;align=center;verticalAlign=middle;whiteSpace=wrap;rounded=0;" vertex="1" parent="1">
          <mxGeometry x="330" y="295" width="70" height="35" as="geometry" />
        </mxCell>
        <mxCell id="BJlCK3rJZ4cMXuTXgVq9-11" value="" style="endArrow=classic;html=1;rounded=0;fontSize=16;exitX=0.5;exitY=0;exitDx=0;exitDy=0;" edge="1" parent="1" source="BJlCK3rJZ4cMXuTXgVq9-7">
          <mxGeometry relative="1" as="geometry">
            <mxPoint x="220" y="220" as="sourcePoint" />
            <mxPoint x="310" y="220" as="targetPoint" />
          </mxGeometry>
        </mxCell>
        <mxCell id="BJlCK3rJZ4cMXuTXgVq9-12" value="&lt;font style=&quot;font-size: 13px&quot;&gt;a&lt;sub&gt;1&lt;/sub&gt;X&lt;sub&gt;1&lt;/sub&gt;&lt;/font&gt;" style="edgeLabel;resizable=0;html=1;align=center;verticalAlign=middle;fontSize=16;" connectable="0" vertex="1" parent="BJlCK3rJZ4cMXuTXgVq9-11">
          <mxGeometry relative="1" as="geometry" />
        </mxCell>
        <mxCell id="BJlCK3rJZ4cMXuTXgVq9-14" value="" style="endArrow=classic;html=1;rounded=0;fontSize=13;exitX=0.5;exitY=0;exitDx=0;exitDy=0;" edge="1" parent="1" source="BJlCK3rJZ4cMXuTXgVq9-8">
          <mxGeometry relative="1" as="geometry">
            <mxPoint x="310" y="220" as="sourcePoint" />
            <mxPoint x="310" y="220" as="targetPoint" />
          </mxGeometry>
        </mxCell>
        <mxCell id="BJlCK3rJZ4cMXuTXgVq9-15" value="a&lt;sub&gt;2&lt;/sub&gt;X&lt;sub&gt;2&lt;/sub&gt;" style="edgeLabel;resizable=0;html=1;align=center;verticalAlign=middle;fontSize=13;" connectable="0" vertex="1" parent="BJlCK3rJZ4cMXuTXgVq9-14">
          <mxGeometry relative="1" as="geometry" />
        </mxCell>
        <mxCell id="BJlCK3rJZ4cMXuTXgVq9-16" value="" style="endArrow=classic;html=1;rounded=0;fontSize=13;exitX=0.5;exitY=0;exitDx=0;exitDy=0;" edge="1" parent="1" source="BJlCK3rJZ4cMXuTXgVq9-9">
          <mxGeometry relative="1" as="geometry">
            <mxPoint x="380" y="250" as="sourcePoint" />
            <mxPoint x="310" y="220" as="targetPoint" />
          </mxGeometry>
        </mxCell>
        <mxCell id="BJlCK3rJZ4cMXuTXgVq9-17" value="a&lt;sub&gt;t&lt;/sub&gt;X&lt;sub&gt;t&lt;/sub&gt;" style="edgeLabel;resizable=0;html=1;align=center;verticalAlign=middle;fontSize=13;" connectable="0" vertex="1" parent="BJlCK3rJZ4cMXuTXgVq9-16">
          <mxGeometry relative="1" as="geometry" />
        </mxCell>
        <mxCell id="BJlCK3rJZ4cMXuTXgVq9-18" value="" style="ellipse;whiteSpace=wrap;html=1;strokeWidth=2;fillWeight=2;hachureGap=8;fillColor=#990000;fillStyle=dots;sketch=1;fontSize=13;" vertex="1" parent="1">
          <mxGeometry x="280" y="170" width="60" height="50" as="geometry" />
        </mxCell>
        <mxCell id="BJlCK3rJZ4cMXuTXgVq9-19" value="&lt;b&gt;&lt;font style=&quot;font-size: 19px&quot;&gt;y&lt;/font&gt;&lt;/b&gt;" style="whiteSpace=wrap;html=1;aspect=fixed;fontSize=13;" vertex="1" parent="1">
          <mxGeometry x="285" y="80" width="50" height="50" as="geometry" />
        </mxCell>
        <mxCell id="BJlCK3rJZ4cMXuTXgVq9-20" value="" style="endArrow=classic;html=1;rounded=0;fontSize=19;entryX=0.5;entryY=1;entryDx=0;entryDy=0;exitX=0.5;exitY=0;exitDx=0;exitDy=0;" edge="1" parent="1" source="BJlCK3rJZ4cMXuTXgVq9-18" target="BJlCK3rJZ4cMXuTXgVq9-19">
          <mxGeometry relative="1" as="geometry">
            <mxPoint x="230" y="160" as="sourcePoint" />
            <mxPoint x="330" y="160" as="targetPoint" />
          </mxGeometry>
        </mxCell>
        <mxCell id="BJlCK3rJZ4cMXuTXgVq9-21" value="softmax" style="edgeLabel;resizable=0;html=1;align=center;verticalAlign=middle;fontSize=19;" connectable="0" vertex="1" parent="BJlCK3rJZ4cMXuTXgVq9-20">
          <mxGeometry relative="1" as="geometry" />
        </mxCell>
      </root>
    </mxGraphModel>
  </diagram>
</mxfile>
